# xmcd CD database file
#
# Track frame offsets:
#	150
#	12395
#	25550
#	41860
#	52095
#	63555
#	76685
#	87640
#	101140
#	115195
#	129105
#	140065
#	153773
#	165070
#	181623
#	194518
#	206943
#	217955
#
# Disc length: 3071 seconds
#
# Revision: 0
# Processed by: cddbd v1.4PL0 Copyright (c) Steve Scherf et al.
# Submitted via: CDex 1.50
#
DISCID=f00bfd12
DTITLE=Charlie Rich - The Most Beautiful Girl
DYEAR=1900
DGENRE=Country
TTITLE0=The most beautiful girl
TTITLE1=Behind closed doors
TTITLE2=Life has its little ups and downs
TTITLE3=Stay
TTITLE4=Why oh why
TTITLE5=If you wouldn't be my lady
TTITLE6=You never really wanted me
TTITLE7=Every time you touch me
TTITLE8=We love each other
TTITLE9=A sunday kind af woman
TTITLE10=I love my friend
TTITLE11=Since I fell for you
TTITLE12='Till I can't take it anymore
TTITLE13=A field of yellow daisies
TTITLE14=I take it on home
TTITLE15=She
TTITLE16=There won't be anymore
TTITLE17=A very special lovesong
EXTD=
EXTT0=
EXTT1=
EXTT2=
EXTT3=
EXTT4=
EXTT5=
EXTT6=
EXTT7=
EXTT8=
EXTT9=
EXTT10=
EXTT11=
EXTT12=
EXTT13=
EXTT14=
EXTT15=
EXTT16=
EXTT17=
PLAYORDER=
